<?xml version="1.0" standalone="no"?>
<!DOCTYPE svg PUBLIC "-//W3C//DTD SVG 20010904//EN"
 "http://www.w3.org/TR/2001/REC-SVG-20010904/DTD/svg10.dtd">
<svg version="1.0" xmlns="http://www.w3.org/2000/svg"
 width="516.000000pt" height="483.000000pt" viewBox="0 0 516.000000 483.000000"
 preserveAspectRatio="xMidYMid meet">

<g transform="translate(0.000000,483.000000) scale(0.100000,-0.100000)"
fill="#000000" stroke="none">
<path d="M1950 4394 c-82 -29 -148 -90 -189 -174 l-26 -55 -5 -490 -5 -490
-525 -5 -525 -5 -47 -23 c-65 -33 -131 -106 -157 -176 -21 -58 -22 -64 -19
-610 l3 -551 27 -51 c35 -67 91 -120 158 -153 l55 -26 255 2 c529 5 1032 96
1507 272 590 219 1078 549 1472 999 l64 72 197 0 c187 0 198 -1 216 -21 18
-20 19 -45 22 -503 2 -264 0 -496 -3 -513 -12 -64 3 -63 -675 -63 l-610 0 0
-593 c0 -563 -1 -595 -18 -610 -17 -15 -70 -17 -560 -17 l-541 0 -15 22 c-14
20 -16 81 -16 470 l0 448 -22 -5 c-13 -3 -70 -16 -128 -29 l-105 -23 -3 -419
c-3 -470 0 -499 64 -587 43 -59 122 -111 192 -126 68 -14 1066 -15 1143 -1
114 21 208 99 248 203 20 56 21 71 21 537 l0 479 518 3 517 3 58 27 c68 32
126 88 158 155 l24 48 0 570 0 570 -23 47 c-29 58 -78 109 -140 145 -44 26
-55 28 -189 31 -79 2 -143 7 -143 11 0 4 13 27 28 52 45 70 127 227 162 309
33 78 90 230 90 239 0 3 -19 -27 -41 -68 -126 -232 -334 -497 -566 -722 -304
-294 -642 -528 -1048 -725 -450 -218 -896 -351 -1387 -414 -103 -13 -403 -29
-539 -30 -124 0 -155 11 -169 58 -8 25 -10 198 -8 518 3 458 4 483 22 503 19
21 22 21 643 21 l623 0 0 593 0 594 23 21 23 22 530 0 c520 0 531 0 552 -20
l22 -21 0 -594 0 -595 194 0 193 0 69 56 c38 31 102 86 143 123 l74 66 -204 5
-204 5 -5 490 c-3 270 -9 499 -14 510 -31 73 -43 92 -80 129 -23 23 -64 53
-91 67 l-50 24 -585 2 c-510 2 -591 0 -630 -13z"/>
</g>
</svg>
